<?xml version="1.0" encoding="UTF-8" standalone="no"?>
<!DOCTYPE svg PUBLIC "-//W3C//DTD SVG 1.1//EN" "http://www.w3.org/Graphics/SVG/1.1/DTD/svg11.dtd">
<svg width="100%" height="100%" viewBox="0 0 1920 1080" version="1.1" xmlns="http://www.w3.org/2000/svg" xmlns:xlink="http://www.w3.org/1999/xlink" xml:space="preserve" xmlns:serif="http://www.serif.com/" style="fill-rule:evenodd;clip-rule:evenodd;stroke-linejoin:round;stroke-miterlimit:1.5;">
    <g transform="matrix(1.04768,0,0,0.877967,924.088,31.4399)">
        <path d="M752.836,248.662C752.836,193.828 715.53,149.31 669.578,149.31L195.648,149.31C149.697,149.31 112.39,193.828 112.39,248.662L112.39,909.833C112.39,964.667 149.697,1009.19 195.648,1009.19L669.578,1009.19C715.53,1009.19 752.836,964.667 752.836,909.833L752.836,248.662Z" style="fill:rgb(235,235,235);"/>
        <clipPath id="_clip1">
            <path d="M752.836,248.662C752.836,193.828 715.53,149.31 669.578,149.31L195.648,149.31C149.697,149.31 112.39,193.828 112.39,248.662L112.39,909.833C112.39,964.667 149.697,1009.19 195.648,1009.19L669.578,1009.19C715.53,1009.19 752.836,964.667 752.836,909.833L752.836,248.662Z"/>
        </clipPath>
        <g clip-path="url(#_clip1)">
            <g transform="matrix(0.586834,0,0,1.18953,232.886,-125.328)">
                <path d="M542.207,531.027C542.207,505.147 506.516,484.136 462.554,484.136L218.139,484.136C174.177,484.136 138.486,505.147 138.486,531.027L138.486,624.809C138.486,650.689 174.177,671.7 218.139,671.7L462.554,671.7C506.516,671.7 542.207,650.689 542.207,624.809L542.207,531.027Z" style="fill:rgb(210,210,210);"/>
                <clipPath id="_clip2">
                    <path d="M542.207,531.027C542.207,505.147 506.516,484.136 462.554,484.136L218.139,484.136C174.177,484.136 138.486,505.147 138.486,531.027L138.486,624.809C138.486,650.689 174.177,671.7 218.139,671.7L462.554,671.7C506.516,671.7 542.207,650.689 542.207,624.809L542.207,531.027Z"/>
                </clipPath>
                <g clip-path="url(#_clip2)">
                    <g id="Nextcloud_Logo" transform="matrix(2.81699,0,0,1.59603,334.798,576.061)">
                        <g transform="matrix(1,0,0,1,-66.946,-47.3137)">
                            <path id="XMLID_107_" d="M67.033,10C55.228,10 45.222,18.003 42.12,28.847C39.425,23.095 33.585,19.066 26.857,19.066C17.605,19.066 10,26.671 10,35.923C10,45.175 17.605,52.783 26.857,52.783C33.585,52.783 39.425,48.751 42.12,42.999C45.222,53.843 55.228,61.849 67.033,61.849C78.751,61.849 88.706,53.964 91.886,43.242C94.631,48.864 100.4,52.783 107.031,52.783C116.283,52.783 123.892,45.175 123.892,35.923C123.892,26.671 116.283,19.066 107.031,19.066C100.4,19.066 94.631,22.983 91.886,28.604C88.706,17.882 78.751,10 67.033,10ZM67.033,19.895C75.944,19.895 83.064,27.011 83.064,35.923C83.064,44.834 75.944,51.953 67.033,51.953C58.121,51.953 51.006,44.834 51.006,35.923C51.006,27.011 58.121,19.895 67.033,19.895ZM26.857,28.961C30.761,28.961 33.822,32.018 33.822,35.923C33.822,39.827 30.761,42.888 26.857,42.888C22.953,42.888 19.896,39.827 19.896,35.923C19.896,32.018 22.953,28.961 26.857,28.961ZM107.031,28.961C110.936,28.961 113.997,32.018 113.997,35.923C113.997,39.827 110.936,42.888 107.031,42.888C103.127,42.888 100.07,39.827 100.07,35.923C100.07,32.018 103.127,28.961 107.031,28.961Z" style="fill:rgb(0,130,201);fill-rule:nonzero;"/>
                            <g id="g4571" transform="matrix(0.470385,0,0,0.470385,21.3892,50.7596)">
                                <path id="XMLID_121_" d="M37.67,48.9C43.57,48.9 46.87,53.1 46.87,59.4C46.87,60 46.37,60.5 45.77,60.5L29.87,60.5C29.97,66.1 33.87,69.3 38.37,69.3C41.17,69.3 43.17,68.1 44.17,67.3C44.77,66.9 45.27,67 45.57,67.6L45.87,68.1C46.17,68.6 46.07,69.1 45.57,69.5C44.37,70.4 41.77,71.9 38.27,71.9C31.77,71.9 26.77,67.2 26.77,60.4C26.87,53.2 31.67,48.9 37.67,48.9ZM43.77,58.3C43.57,53.7 40.77,51.4 37.57,51.4C33.87,51.4 30.67,53.8 29.97,58.3L43.77,58.3Z" style="fill:rgb(0,130,201);fill-rule:nonzero;"/>
                                <path id="XMLID_119_" d="M76.9,63.4L76.9,44.4C76.9,43.7 77.3,43.3 78,43.3L78.8,43.3C79.5,43.3 79.8,43.7 79.8,44.4L79.8,49.6L84.3,49.6C85,49.6 85.4,50 85.4,50.7L85.4,51C85.4,51.7 85,52 84.3,52L79.8,52L79.8,63C79.8,68.1 82.9,68.7 84.6,68.8C85.5,68.9 85.8,69.1 85.8,69.9L85.8,70.5C85.8,71.2 85.5,71.5 84.6,71.5C79.8,71.5 76.9,68.6 76.9,63.4Z" style="fill:rgb(0,130,201);fill-rule:nonzero;"/>
                                <path id="XMLID_117_" d="M99.8,48.9C103.6,48.9 106,50.5 107.1,51.4C107.6,51.8 107.7,52.3 107.2,52.9L106.9,53.4C106.5,54 106,54 105.4,53.6C104.4,52.9 102.5,51.6 99.9,51.6C95.1,51.6 91.3,55.2 91.3,60.5C91.3,65.7 95.1,69.3 99.9,69.3C103,69.3 105.1,67.9 106.1,67C106.7,66.6 107.1,66.7 107.5,67.3L107.8,67.7C108.1,68.3 108,68.7 107.5,69.2C106.4,70.1 103.7,72 99.7,72C93.2,72 88.2,67.3 88.2,60.5C88.3,53.7 93.3,48.9 99.8,48.9Z" style="fill:rgb(0,130,201);fill-rule:nonzero;"/>
                                <path id="XMLID_115_" d="M113.1,41.8C113.1,41.1 112.7,40.7 113.4,40.7L114.2,40.7C114.9,40.7 116,41.1 116,41.8L116,65.7C116,68.5 117.3,68.8 118.3,68.9C118.8,68.9 119.2,69.2 119.2,69.9L119.2,70.6C119.2,71.3 118.9,71.7 118.1,71.7C116.3,71.7 113.1,71.1 113.1,66.3L113.1,41.8Z" style="fill:rgb(0,130,201);fill-rule:nonzero;"/>
                                <path id="XMLID_112_" d="M133.6,48.9C140,48.9 145.2,53.8 145.2,60.3C145.2,66.9 140,71.9 133.6,71.9C127.2,71.9 122,66.9 122,60.3C122,53.8 127.2,48.9 133.6,48.9ZM133.6,69.3C138.3,69.3 142.1,65.5 142.1,60.3C142.1,55.3 138.3,51.6 133.6,51.6C128.9,51.6 125,55.4 125,60.3C125.1,65.4 128.9,69.3 133.6,69.3Z" style="fill:rgb(0,130,201);fill-rule:nonzero;"/>
                                <path id="XMLID_109_" d="M183.5,48.9C188.8,48.9 190.7,53.3 190.7,53.3L190.8,53.3C190.8,53.3 190.7,52.6 190.7,51.6L190.7,41.7C190.7,41 190.4,40.6 191.1,40.6L191.9,40.6C192.6,40.6 193.7,41 193.7,41.7L193.7,70.2C193.7,70.9 193.4,71.3 192.7,71.3L192,71.3C191.3,71.3 190.9,71 190.9,70.3L190.9,68.6C190.9,67.8 191.1,67.2 191.1,67.2L191,67.2C191,67.2 189.1,71.8 183.4,71.8C177.5,71.8 173.8,67.1 173.8,60.3C173.6,53.5 177.7,48.9 183.5,48.9ZM183.6,69.3C187.3,69.3 190.7,66.7 190.7,60.4C190.7,55.9 188.4,51.6 183.7,51.6C179.8,51.6 176.6,54.8 176.6,60.4C176.7,65.8 179.5,69.3 183.6,69.3Z" style="fill:rgb(0,130,201);fill-rule:nonzero;"/>
                                <path id="XMLID_103_" d="M1,71.4L1.8,71.4C2.5,71.4 2.9,71 2.9,70.3L2.9,48.828C2.9,45.428 6.6,43 10.8,43C15,43 18.7,45.428 18.7,48.828L18.7,70.3C18.7,71 19.1,71.4 19.8,71.4L20.6,71.4C21.3,71.4 21.6,71 21.6,70.3L21.6,48.7C21.6,43 15.9,40.2 10.7,40.2C5.7,40.2 0,43 0,48.7L0,70.3C0,71 0.3,71.4 1,71.4Z" style="fill:rgb(0,130,201);fill-rule:nonzero;"/>
                                <path id="XMLID_102_" d="M167.9,49.4L167.1,49.4C166.4,49.4 166,49.8 166,50.5L166,62.6C166,66 163.8,69.1 159.5,69.1C155.3,69.1 153,66 153,62.6L153,50.5C153,49.8 152.6,49.4 151.9,49.4L151.1,49.4C150.4,49.4 150.1,49.8 150.1,50.5L150.1,63.4C150.1,69.1 154.3,71.9 159.5,71.9C164.7,71.9 168.9,69.1 168.9,63.4L168.9,50.5C169,49.8 168.6,49.4 167.9,49.4Z" style="fill:rgb(0,130,201);fill-rule:nonzero;"/>
                                <path id="path4165-9" d="M68.908,49.236C68.663,49.275 68.428,49.439 68.203,49.707L64.156,54.531L61.127,58.14L56.541,52.673L54.053,49.707C53.828,49.439 53.573,49.292 53.309,49.269C53.044,49.246 52.77,49.347 52.502,49.572L51.889,50.086C51.352,50.535 51.38,51.034 51.83,51.57L55.879,56.394L59.236,60.394L54.32,66.252C54.317,66.256 54.314,66.261 54.311,66.265L51.83,69.22C51.38,69.757 51.431,70.321 51.967,70.771L52.58,71.283C53.116,71.733 53.603,71.62 54.053,71.084L58.1,66.259L61.129,62.65L65.715,68.117C65.718,68.12 65.722,68.123 65.725,68.127L68.205,71.084C68.655,71.62 69.218,71.668 69.754,71.218L70.367,70.705C70.903,70.255 70.876,69.757 70.426,69.22L66.377,64.396L63.02,60.396L67.936,54.539C67.939,54.534 67.942,54.529 67.945,54.525L70.426,51.57C70.876,51.034 70.825,50.469 70.289,50.019L69.676,49.506C69.408,49.281 69.153,49.197 68.908,49.236L68.908,49.236Z" style="fill:rgb(0,130,201);fill-rule:nonzero;"/>
                            </g>
                        </g>
                    </g>
                </g>
            </g>
            <g transform="matrix(0.954489,0,0,1.139,-88.528,-52.9324)">
                <g transform="matrix(1,-0,-0,1,-831.339,15.0329)">
                    <path d="M1402.46,776.92L1416.78,787.657L1402.46,798.395L1402.46,776.92Z"/>
                    <path d="M1377.33,622.911L1377.33,787.657L1405.32,787.657" style="fill:none;stroke:black;stroke-width:4.77px;"/>
                </g>
            </g>
            <g transform="matrix(0.954489,0,0,1.139,-81.6004,-52.9324)">
                <g transform="matrix(1,-0,-0,1,-838.597,15.0329)">
                    <path d="M1352.2,798.395L1337.88,787.657L1352.2,776.92L1352.2,798.395Z"/>
                    <path d="M1377.33,787.657L1349.33,787.657" style="fill:none;stroke:black;stroke-width:4.77px;stroke-linecap:round;"/>
                </g>
            </g>
            <g transform="matrix(1.24255,0,0,0.936282,-189.354,378.886)">
                <path d="M470.255,469.604C470.255,444.399 457.333,423.935 441.417,423.935L308.423,423.935C292.506,423.935 279.584,444.399 279.584,469.604L279.584,560.944C279.584,586.15 292.506,606.614 308.423,606.614L441.417,606.614C457.333,606.614 470.255,586.15 470.255,560.944L470.255,469.604Z" style="fill:rgb(210,210,210);"/>
                <clipPath id="_clip3">
                    <path d="M470.255,469.604C470.255,444.399 457.333,423.935 441.417,423.935L308.423,423.935C292.506,423.935 279.584,444.399 279.584,469.604L279.584,560.944C279.584,586.15 292.506,606.614 308.423,606.614L441.417,606.614C457.333,606.614 470.255,586.15 470.255,560.944L470.255,469.604Z"/>
                </clipPath>
                <g clip-path="url(#_clip3)">
                    <g id="minio" transform="matrix(0.951166,0,0,1.4497,376.939,479.146)">
                        <g transform="matrix(1,0,0,1,-81.306,-12.2325)">
                            <path d="M52.751,0.414L61.859,0.414L61.859,24.044L52.751,24.044L52.751,0.414ZM41.711,0.74L23.223,10.66C22.955,10.801 22.635,10.801 22.367,10.66L3.879,0.74C3.472,0.525 3.018,0.413 2.558,0.414L2.535,0.414C1.231,0.337 0.092,1.338 0,2.641L0,24.017L9.1,24.017L9.1,13.842C9.153,13.381 9.548,13.029 10.012,13.029C10.179,13.029 10.342,13.074 10.485,13.16L20.846,18.728C21.887,19.277 23.132,19.287 24.182,18.756L35.115,13.122C35.255,13.041 35.413,12.998 35.575,12.998C36.039,12.998 36.434,13.351 36.486,13.812L36.486,24.017L45.586,24.017L45.586,2.641C45.494,1.34 44.357,0.34 43.055,0.414L43.032,0.414C42.572,0.413 42.118,0.525 41.711,0.74ZM107.275,0.414L98.038,0.414L98.038,11.169C97.988,11.63 97.594,11.983 97.13,11.983C96.98,11.983 96.832,11.946 96.7,11.875L72.762,0.675C72.389,0.502 71.982,0.413 71.571,0.414L71.555,0.414C70.251,0.337 69.112,1.338 69.02,2.641L69.02,24.018L78.183,24.018L78.183,13.275C78.234,12.814 78.628,12.461 79.091,12.461C79.241,12.461 79.388,12.498 79.52,12.568L103.552,23.768C103.924,23.94 104.33,24.029 104.74,24.028C106.044,24.105 107.183,23.104 107.275,21.801L107.275,0.414ZM114.436,24.044L114.436,0.414L118.627,0.414L118.627,24.044L114.436,24.044ZM143.292,24.465C132.018,24.465 124.02,19.765 124.02,12.233C124.02,4.741 132.066,0 143.292,0C154.518,0 162.612,4.7 162.612,12.233C162.612,19.766 154.71,24.465 143.292,24.465ZM143.292,3.132C134.909,3.132 128.452,6.349 128.452,12.232C128.452,18.158 134.909,21.332 143.292,21.332C151.675,21.332 158.179,18.158 158.179,12.232C158.179,6.349 151.675,3.132 143.292,3.132Z" style="fill:rgb(199,44,72);fill-rule:nonzero;"/>
                        </g>
                    </g>
                    <g transform="matrix(0.582175,0,0,0.887312,146.039,43.6514)">
                        <text x="317.262px" y="594.054px" style="font-family:'ArialMT', 'Arial', sans-serif;font-size:66.945px;">5 GB</text>
                    </g>
                </g>
            </g>
            <g transform="matrix(1.24255,0,0,0.936282,122.871,378.886)">
                <path d="M470.255,469.604C470.255,444.399 457.333,423.935 441.417,423.935L308.423,423.935C292.506,423.935 279.584,444.399 279.584,469.604L279.584,560.944C279.584,586.15 292.506,606.614 308.423,606.614L441.417,606.614C457.333,606.614 470.255,586.15 470.255,560.944L470.255,469.604Z" style="fill:rgb(210,210,210);"/>
                <clipPath id="_clip4">
                    <path d="M470.255,469.604C470.255,444.399 457.333,423.935 441.417,423.935L308.423,423.935C292.506,423.935 279.584,444.399 279.584,469.604L279.584,560.944C279.584,586.15 292.506,606.614 308.423,606.614L441.417,606.614C457.333,606.614 470.255,586.15 470.255,560.944L470.255,469.604Z"/>
                </clipPath>
                <g clip-path="url(#_clip4)">
                    <g id="minio1" serif:id="minio" transform="matrix(0.951166,0,0,1.4497,376.939,479.146)">
                        <g transform="matrix(1,0,0,1,-81.306,-12.2325)">
                            <path d="M52.751,0.414L61.859,0.414L61.859,24.044L52.751,24.044L52.751,0.414ZM41.711,0.74L23.223,10.66C22.955,10.801 22.635,10.801 22.367,10.66L3.879,0.74C3.472,0.525 3.018,0.413 2.558,0.414L2.535,0.414C1.231,0.337 0.092,1.338 0,2.641L0,24.017L9.1,24.017L9.1,13.842C9.153,13.381 9.548,13.029 10.012,13.029C10.179,13.029 10.342,13.074 10.485,13.16L20.846,18.728C21.887,19.277 23.132,19.287 24.182,18.756L35.115,13.122C35.255,13.041 35.413,12.998 35.575,12.998C36.039,12.998 36.434,13.351 36.486,13.812L36.486,24.017L45.586,24.017L45.586,2.641C45.494,1.34 44.357,0.34 43.055,0.414L43.032,0.414C42.572,0.413 42.118,0.525 41.711,0.74ZM107.275,0.414L98.038,0.414L98.038,11.169C97.988,11.63 97.594,11.983 97.13,11.983C96.98,11.983 96.832,11.946 96.7,11.875L72.762,0.675C72.389,0.502 71.982,0.413 71.571,0.414L71.555,0.414C70.251,0.337 69.112,1.338 69.02,2.641L69.02,24.018L78.183,24.018L78.183,13.275C78.234,12.814 78.628,12.461 79.091,12.461C79.241,12.461 79.388,12.498 79.52,12.568L103.552,23.768C103.924,23.94 104.33,24.029 104.74,24.028C106.044,24.105 107.183,23.104 107.275,21.801L107.275,0.414ZM114.436,24.044L114.436,0.414L118.627,0.414L118.627,24.044L114.436,24.044ZM143.292,24.465C132.018,24.465 124.02,19.765 124.02,12.233C124.02,4.741 132.066,0 143.292,0C154.518,0 162.612,4.7 162.612,12.233C162.612,19.766 154.71,24.465 143.292,24.465ZM143.292,3.132C134.909,3.132 128.452,6.349 128.452,12.232C128.452,18.158 134.909,21.332 143.292,21.332C151.675,21.332 158.179,18.158 158.179,12.232C158.179,6.349 151.675,3.132 143.292,3.132Z" style="fill:rgb(199,44,72);fill-rule:nonzero;"/>
                        </g>
                    </g>
                    <g transform="matrix(0.582175,0,0,0.887312,146.039,43.6514)">
                        <text x="317.262px" y="594.054px" style="font-family:'ArialMT', 'Arial', sans-serif;font-size:66.945px;">5 GB</text>
                    </g>
                </g>
            </g>
        </g>
        <path d="M752.836,248.662C752.836,193.828 715.53,149.31 669.578,149.31L195.648,149.31C149.697,149.31 112.39,193.828 112.39,248.662L112.39,909.833C112.39,964.667 149.697,1009.19 195.648,1009.19L669.578,1009.19C715.53,1009.19 752.836,964.667 752.836,909.833L752.836,248.662Z" style="fill:none;stroke:black;stroke-width:0.13px;stroke-linecap:round;stroke-linejoin:miter;"/>
    </g>
    <g transform="matrix(1.04768,0,0,0.877967,83.7044,31.4399)">
        <path d="M752.836,248.662C752.836,193.828 715.53,149.31 669.578,149.31L195.648,149.31C149.697,149.31 112.39,193.828 112.39,248.662L112.39,909.833C112.39,964.667 149.697,1009.19 195.648,1009.19L669.578,1009.19C715.53,1009.19 752.836,964.667 752.836,909.833L752.836,248.662Z" style="fill:rgb(235,235,235);"/>
        <clipPath id="_clip5">
            <path d="M752.836,248.662C752.836,193.828 715.53,149.31 669.578,149.31L195.648,149.31C149.697,149.31 112.39,193.828 112.39,248.662L112.39,909.833C112.39,964.667 149.697,1009.19 195.648,1009.19L669.578,1009.19C715.53,1009.19 752.836,964.667 752.836,909.833L752.836,248.662Z"/>
        </clipPath>
        <g clip-path="url(#_clip5)">
            <g transform="matrix(0.586834,0,0,1.18953,232.886,-125.328)">
                <path d="M542.207,531.027C542.207,505.147 506.516,484.136 462.554,484.136L218.139,484.136C174.177,484.136 138.486,505.147 138.486,531.027L138.486,624.809C138.486,650.689 174.177,671.7 218.139,671.7L462.554,671.7C506.516,671.7 542.207,650.689 542.207,624.809L542.207,531.027Z" style="fill:rgb(210,210,210);"/>
                <clipPath id="_clip6">
                    <path d="M542.207,531.027C542.207,505.147 506.516,484.136 462.554,484.136L218.139,484.136C174.177,484.136 138.486,505.147 138.486,531.027L138.486,624.809C138.486,650.689 174.177,671.7 218.139,671.7L462.554,671.7C506.516,671.7 542.207,650.689 542.207,624.809L542.207,531.027Z"/>
                </clipPath>
                <g clip-path="url(#_clip6)">
                    <g id="Nextcloud_Logo1" serif:id="Nextcloud_Logo" transform="matrix(2.81699,0,0,1.59603,334.798,576.061)">
                        <g transform="matrix(1,0,0,1,-66.946,-47.3137)">
                            <path id="XMLID_107_1" serif:id="XMLID_107_" d="M67.033,10C55.228,10 45.222,18.003 42.12,28.847C39.425,23.095 33.585,19.066 26.857,19.066C17.605,19.066 10,26.671 10,35.923C10,45.175 17.605,52.783 26.857,52.783C33.585,52.783 39.425,48.751 42.12,42.999C45.222,53.843 55.228,61.849 67.033,61.849C78.751,61.849 88.706,53.964 91.886,43.242C94.631,48.864 100.4,52.783 107.031,52.783C116.283,52.783 123.892,45.175 123.892,35.923C123.892,26.671 116.283,19.066 107.031,19.066C100.4,19.066 94.631,22.983 91.886,28.604C88.706,17.882 78.751,10 67.033,10ZM67.033,19.895C75.944,19.895 83.064,27.011 83.064,35.923C83.064,44.834 75.944,51.953 67.033,51.953C58.121,51.953 51.006,44.834 51.006,35.923C51.006,27.011 58.121,19.895 67.033,19.895ZM26.857,28.961C30.761,28.961 33.822,32.018 33.822,35.923C33.822,39.827 30.761,42.888 26.857,42.888C22.953,42.888 19.896,39.827 19.896,35.923C19.896,32.018 22.953,28.961 26.857,28.961ZM107.031,28.961C110.936,28.961 113.997,32.018 113.997,35.923C113.997,39.827 110.936,42.888 107.031,42.888C103.127,42.888 100.07,39.827 100.07,35.923C100.07,32.018 103.127,28.961 107.031,28.961Z" style="fill:rgb(0,130,201);fill-rule:nonzero;"/>
                            <g id="g45711" serif:id="g4571" transform="matrix(0.470385,0,0,0.470385,21.3892,50.7596)">
                                <path id="XMLID_121_1" serif:id="XMLID_121_" d="M37.67,48.9C43.57,48.9 46.87,53.1 46.87,59.4C46.87,60 46.37,60.5 45.77,60.5L29.87,60.5C29.97,66.1 33.87,69.3 38.37,69.3C41.17,69.3 43.17,68.1 44.17,67.3C44.77,66.9 45.27,67 45.57,67.6L45.87,68.1C46.17,68.6 46.07,69.1 45.57,69.5C44.37,70.4 41.77,71.9 38.27,71.9C31.77,71.9 26.77,67.2 26.77,60.4C26.87,53.2 31.67,48.9 37.67,48.9ZM43.77,58.3C43.57,53.7 40.77,51.4 37.57,51.4C33.87,51.4 30.67,53.8 29.97,58.3L43.77,58.3Z" style="fill:rgb(0,130,201);fill-rule:nonzero;"/>
                                <path id="XMLID_119_1" serif:id="XMLID_119_" d="M76.9,63.4L76.9,44.4C76.9,43.7 77.3,43.3 78,43.3L78.8,43.3C79.5,43.3 79.8,43.7 79.8,44.4L79.8,49.6L84.3,49.6C85,49.6 85.4,50 85.4,50.7L85.4,51C85.4,51.7 85,52 84.3,52L79.8,52L79.8,63C79.8,68.1 82.9,68.7 84.6,68.8C85.5,68.9 85.8,69.1 85.8,69.9L85.8,70.5C85.8,71.2 85.5,71.5 84.6,71.5C79.8,71.5 76.9,68.6 76.9,63.4Z" style="fill:rgb(0,130,201);fill-rule:nonzero;"/>
                                <path id="XMLID_117_1" serif:id="XMLID_117_" d="M99.8,48.9C103.6,48.9 106,50.5 107.1,51.4C107.6,51.8 107.7,52.3 107.2,52.9L106.9,53.4C106.5,54 106,54 105.4,53.6C104.4,52.9 102.5,51.6 99.9,51.6C95.1,51.6 91.3,55.2 91.3,60.5C91.3,65.7 95.1,69.3 99.9,69.3C103,69.3 105.1,67.9 106.1,67C106.7,66.6 107.1,66.7 107.5,67.3L107.8,67.7C108.1,68.3 108,68.7 107.5,69.2C106.4,70.1 103.7,72 99.7,72C93.2,72 88.2,67.3 88.2,60.5C88.3,53.7 93.3,48.9 99.8,48.9Z" style="fill:rgb(0,130,201);fill-rule:nonzero;"/>
                                <path id="XMLID_115_1" serif:id="XMLID_115_" d="M113.1,41.8C113.1,41.1 112.7,40.7 113.4,40.7L114.2,40.7C114.9,40.7 116,41.1 116,41.8L116,65.7C116,68.5 117.3,68.8 118.3,68.9C118.8,68.9 119.2,69.2 119.2,69.9L119.2,70.6C119.2,71.3 118.9,71.7 118.1,71.7C116.3,71.7 113.1,71.1 113.1,66.3L113.1,41.8Z" style="fill:rgb(0,130,201);fill-rule:nonzero;"/>
                                <path id="XMLID_112_1" serif:id="XMLID_112_" d="M133.6,48.9C140,48.9 145.2,53.8 145.2,60.3C145.2,66.9 140,71.9 133.6,71.9C127.2,71.9 122,66.9 122,60.3C122,53.8 127.2,48.9 133.6,48.9ZM133.6,69.3C138.3,69.3 142.1,65.5 142.1,60.3C142.1,55.3 138.3,51.6 133.6,51.6C128.9,51.6 125,55.4 125,60.3C125.1,65.4 128.9,69.3 133.6,69.3Z" style="fill:rgb(0,130,201);fill-rule:nonzero;"/>
                                <path id="XMLID_109_1" serif:id="XMLID_109_" d="M183.5,48.9C188.8,48.9 190.7,53.3 190.7,53.3L190.8,53.3C190.8,53.3 190.7,52.6 190.7,51.6L190.7,41.7C190.7,41 190.4,40.6 191.1,40.6L191.9,40.6C192.6,40.6 193.7,41 193.7,41.7L193.7,70.2C193.7,70.9 193.4,71.3 192.7,71.3L192,71.3C191.3,71.3 190.9,71 190.9,70.3L190.9,68.6C190.9,67.8 191.1,67.2 191.1,67.2L191,67.2C191,67.2 189.1,71.8 183.4,71.8C177.5,71.8 173.8,67.1 173.8,60.3C173.6,53.5 177.7,48.9 183.5,48.9ZM183.6,69.3C187.3,69.3 190.7,66.7 190.7,60.4C190.7,55.9 188.4,51.6 183.7,51.6C179.8,51.6 176.6,54.8 176.6,60.4C176.7,65.8 179.5,69.3 183.6,69.3Z" style="fill:rgb(0,130,201);fill-rule:nonzero;"/>
                                <path id="XMLID_103_1" serif:id="XMLID_103_" d="M1,71.4L1.8,71.4C2.5,71.4 2.9,71 2.9,70.3L2.9,48.828C2.9,45.428 6.6,43 10.8,43C15,43 18.7,45.428 18.7,48.828L18.7,70.3C18.7,71 19.1,71.4 19.8,71.4L20.6,71.4C21.3,71.4 21.6,71 21.6,70.3L21.6,48.7C21.6,43 15.9,40.2 10.7,40.2C5.7,40.2 0,43 0,48.7L0,70.3C0,71 0.3,71.4 1,71.4Z" style="fill:rgb(0,130,201);fill-rule:nonzero;"/>
                                <path id="XMLID_102_1" serif:id="XMLID_102_" d="M167.9,49.4L167.1,49.4C166.4,49.4 166,49.8 166,50.5L166,62.6C166,66 163.8,69.1 159.5,69.1C155.3,69.1 153,66 153,62.6L153,50.5C153,49.8 152.6,49.4 151.9,49.4L151.1,49.4C150.4,49.4 150.1,49.8 150.1,50.5L150.1,63.4C150.1,69.1 154.3,71.9 159.5,71.9C164.7,71.9 168.9,69.1 168.9,63.4L168.9,50.5C169,49.8 168.6,49.4 167.9,49.4Z" style="fill:rgb(0,130,201);fill-rule:nonzero;"/>
                                <path id="path4165-91" serif:id="path4165-9" d="M68.908,49.236C68.663,49.275 68.428,49.439 68.203,49.707L64.156,54.531L61.127,58.14L56.541,52.673L54.053,49.707C53.828,49.439 53.573,49.292 53.309,49.269C53.044,49.246 52.77,49.347 52.502,49.572L51.889,50.086C51.352,50.535 51.38,51.034 51.83,51.57L55.879,56.394L59.236,60.394L54.32,66.252C54.317,66.256 54.314,66.261 54.311,66.265L51.83,69.22C51.38,69.757 51.431,70.321 51.967,70.771L52.58,71.283C53.116,71.733 53.603,71.62 54.053,71.084L58.1,66.259L61.129,62.65L65.715,68.117C65.718,68.12 65.722,68.123 65.725,68.127L68.205,71.084C68.655,71.62 69.218,71.668 69.754,71.218L70.367,70.705C70.903,70.255 70.876,69.757 70.426,69.22L66.377,64.396L63.02,60.396L67.936,54.539C67.939,54.534 67.942,54.529 67.945,54.525L70.426,51.57C70.876,51.034 70.825,50.469 70.289,50.019L69.676,49.506C69.408,49.281 69.153,49.197 68.908,49.236L68.908,49.236Z" style="fill:rgb(0,130,201);fill-rule:nonzero;"/>
                            </g>
                        </g>
                    </g>
                </g>
            </g>
            <g transform="matrix(0.954489,0,0,1.139,-88.528,-52.9324)">
                <g transform="matrix(1,-0,-0,1,9.04467,15.0329)">
                    <path d="M562.077,776.92L576.394,787.657L562.077,798.395L562.077,776.92Z"/>
                    <path d="M536.945,622.911L536.945,787.657L564.94,787.657" style="fill:none;stroke:black;stroke-width:4.77px;"/>
                </g>
            </g>
            <g transform="matrix(0.954489,0,0,1.139,-81.6004,-52.9324)">
                <g transform="matrix(1,-0,-0,1,1.78676,15.0329)">
                    <path d="M511.813,798.395L497.496,787.657L511.813,776.92L511.813,798.395Z"/>
                    <path d="M536.945,787.657L508.95,787.657" style="fill:none;stroke:black;stroke-width:4.77px;stroke-linecap:round;"/>
                </g>
            </g>
            <g transform="matrix(0.954489,0,0,1.139,-81.6004,-52.9324)">
                <g transform="matrix(1,-0,-0,1,1.78676,15.0329)">
                    <path d="M511.813,295.502L497.496,284.764L511.813,274.026L511.813,295.502Z"/>
                    <path d="M536.945,427.024L536.945,284.764L508.95,284.764" style="fill:none;stroke:black;stroke-width:4.77px;"/>
                </g>
            </g>
            <g transform="matrix(0.954489,0,0,1.139,-81.6004,-52.9324)">
                <g transform="matrix(1,-0,-0,1,1.78676,15.0329)">
                    <path d="M562.077,274.026L576.394,284.764L562.077,295.502L562.077,274.026Z"/>
                    <path d="M523.091,284.764L564.94,284.764" style="fill:none;stroke:black;stroke-width:4.77px;"/>
                </g>
            </g>
            <g transform="matrix(1.24255,0,0,0.936282,-189.354,378.886)">
                <path d="M470.255,469.604C470.255,444.399 457.333,423.935 441.417,423.935L308.423,423.935C292.506,423.935 279.584,444.399 279.584,469.604L279.584,560.944C279.584,586.15 292.506,606.614 308.423,606.614L441.417,606.614C457.333,606.614 470.255,586.15 470.255,560.944L470.255,469.604Z" style="fill:rgb(210,210,210);"/>
                <clipPath id="_clip7">
                    <path d="M470.255,469.604C470.255,444.399 457.333,423.935 441.417,423.935L308.423,423.935C292.506,423.935 279.584,444.399 279.584,469.604L279.584,560.944C279.584,586.15 292.506,606.614 308.423,606.614L441.417,606.614C457.333,606.614 470.255,586.15 470.255,560.944L470.255,469.604Z"/>
                </clipPath>
                <g clip-path="url(#_clip7)">
                    <g id="minio2" serif:id="minio" transform="matrix(0.951166,0,0,1.4497,376.939,479.146)">
                        <g transform="matrix(1,0,0,1,-81.306,-12.2325)">
                            <path d="M52.751,0.414L61.859,0.414L61.859,24.044L52.751,24.044L52.751,0.414ZM41.711,0.74L23.223,10.66C22.955,10.801 22.635,10.801 22.367,10.66L3.879,0.74C3.472,0.525 3.018,0.413 2.558,0.414L2.535,0.414C1.231,0.337 0.092,1.338 0,2.641L0,24.017L9.1,24.017L9.1,13.842C9.153,13.381 9.548,13.029 10.012,13.029C10.179,13.029 10.342,13.074 10.485,13.16L20.846,18.728C21.887,19.277 23.132,19.287 24.182,18.756L35.115,13.122C35.255,13.041 35.413,12.998 35.575,12.998C36.039,12.998 36.434,13.351 36.486,13.812L36.486,24.017L45.586,24.017L45.586,2.641C45.494,1.34 44.357,0.34 43.055,0.414L43.032,0.414C42.572,0.413 42.118,0.525 41.711,0.74ZM107.275,0.414L98.038,0.414L98.038,11.169C97.988,11.63 97.594,11.983 97.13,11.983C96.98,11.983 96.832,11.946 96.7,11.875L72.762,0.675C72.389,0.502 71.982,0.413 71.571,0.414L71.555,0.414C70.251,0.337 69.112,1.338 69.02,2.641L69.02,24.018L78.183,24.018L78.183,13.275C78.234,12.814 78.628,12.461 79.091,12.461C79.241,12.461 79.388,12.498 79.52,12.568L103.552,23.768C103.924,23.94 104.33,24.029 104.74,24.028C106.044,24.105 107.183,23.104 107.275,21.801L107.275,0.414ZM114.436,24.044L114.436,0.414L118.627,0.414L118.627,24.044L114.436,24.044ZM143.292,24.465C132.018,24.465 124.02,19.765 124.02,12.233C124.02,4.741 132.066,0 143.292,0C154.518,0 162.612,4.7 162.612,12.233C162.612,19.766 154.71,24.465 143.292,24.465ZM143.292,3.132C134.909,3.132 128.452,6.349 128.452,12.232C128.452,18.158 134.909,21.332 143.292,21.332C151.675,21.332 158.179,18.158 158.179,12.232C158.179,6.349 151.675,3.132 143.292,3.132Z" style="fill:rgb(199,44,72);fill-rule:nonzero;"/>
                        </g>
                    </g>
                    <g transform="matrix(0.582175,0,0,0.887312,146.039,43.6514)">
                        <text x="317.262px" y="594.054px" style="font-family:'ArialMT', 'Arial', sans-serif;font-size:66.945px;">5 GB</text>
                    </g>
                </g>
            </g>
            <g transform="matrix(1.24255,0,0,0.936282,122.871,378.886)">
                <path d="M470.255,469.604C470.255,444.399 457.333,423.935 441.417,423.935L308.423,423.935C292.506,423.935 279.584,444.399 279.584,469.604L279.584,560.944C279.584,586.15 292.506,606.614 308.423,606.614L441.417,606.614C457.333,606.614 470.255,586.15 470.255,560.944L470.255,469.604Z" style="fill:rgb(210,210,210);"/>
                <clipPath id="_clip8">
                    <path d="M470.255,469.604C470.255,444.399 457.333,423.935 441.417,423.935L308.423,423.935C292.506,423.935 279.584,444.399 279.584,469.604L279.584,560.944C279.584,586.15 292.506,606.614 308.423,606.614L441.417,606.614C457.333,606.614 470.255,586.15 470.255,560.944L470.255,469.604Z"/>
                </clipPath>
                <g clip-path="url(#_clip8)">
                    <g id="minio3" serif:id="minio" transform="matrix(0.951166,0,0,1.4497,376.939,479.146)">
                        <g transform="matrix(1,0,0,1,-81.306,-12.2325)">
                            <path d="M52.751,0.414L61.859,0.414L61.859,24.044L52.751,24.044L52.751,0.414ZM41.711,0.74L23.223,10.66C22.955,10.801 22.635,10.801 22.367,10.66L3.879,0.74C3.472,0.525 3.018,0.413 2.558,0.414L2.535,0.414C1.231,0.337 0.092,1.338 0,2.641L0,24.017L9.1,24.017L9.1,13.842C9.153,13.381 9.548,13.029 10.012,13.029C10.179,13.029 10.342,13.074 10.485,13.16L20.846,18.728C21.887,19.277 23.132,19.287 24.182,18.756L35.115,13.122C35.255,13.041 35.413,12.998 35.575,12.998C36.039,12.998 36.434,13.351 36.486,13.812L36.486,24.017L45.586,24.017L45.586,2.641C45.494,1.34 44.357,0.34 43.055,0.414L43.032,0.414C42.572,0.413 42.118,0.525 41.711,0.74ZM107.275,0.414L98.038,0.414L98.038,11.169C97.988,11.63 97.594,11.983 97.13,11.983C96.98,11.983 96.832,11.946 96.7,11.875L72.762,0.675C72.389,0.502 71.982,0.413 71.571,0.414L71.555,0.414C70.251,0.337 69.112,1.338 69.02,2.641L69.02,24.018L78.183,24.018L78.183,13.275C78.234,12.814 78.628,12.461 79.091,12.461C79.241,12.461 79.388,12.498 79.52,12.568L103.552,23.768C103.924,23.94 104.33,24.029 104.74,24.028C106.044,24.105 107.183,23.104 107.275,21.801L107.275,0.414ZM114.436,24.044L114.436,0.414L118.627,0.414L118.627,24.044L114.436,24.044ZM143.292,24.465C132.018,24.465 124.02,19.765 124.02,12.233C124.02,4.741 132.066,0 143.292,0C154.518,0 162.612,4.7 162.612,12.233C162.612,19.766 154.71,24.465 143.292,24.465ZM143.292,3.132C134.909,3.132 128.452,6.349 128.452,12.232C128.452,18.158 134.909,21.332 143.292,21.332C151.675,21.332 158.179,18.158 158.179,12.232C158.179,6.349 151.675,3.132 143.292,3.132Z" style="fill:rgb(199,44,72);fill-rule:nonzero;"/>
                        </g>
                    </g>
                    <g transform="matrix(0.582175,0,0,0.887312,146.039,43.6514)">
                        <text x="317.262px" y="594.054px" style="font-family:'ArialMT', 'Arial', sans-serif;font-size:66.945px;">5 GB</text>
                    </g>
                </g>
            </g>
            <g transform="matrix(0.765127,0,0,1.1198,-42.6494,-40.3621)">
                <path d="M571.943,255.684C571.943,234.696 551.045,217.657 525.304,217.657L308.644,217.657C282.903,217.657 262.004,234.696 262.004,255.684L262.004,331.739C262.004,352.727 282.903,369.767 308.644,369.767L525.304,369.767C551.045,369.767 571.943,352.727 571.943,331.739L571.943,255.684Z" style="fill:rgb(210,210,210);"/>
                <clipPath id="_clip9">
                    <path d="M571.943,255.684C571.943,234.696 551.045,217.657 525.304,217.657L308.644,217.657C282.903,217.657 262.004,234.696 262.004,255.684L262.004,331.739C262.004,352.727 282.903,369.767 308.644,369.767L525.304,369.767C551.045,369.767 571.943,352.727 571.943,331.739L571.943,255.684Z"/>
                </clipPath>
                <g clip-path="url(#_clip9)">
                    <g id="mariadb" transform="matrix(0.311693,0,0,0.24459,406.458,261.663)">
                        <g transform="matrix(1,0,0,1,-394.55,-97.82)">
                            <clipPath id="_clip10">
                                <rect x="0" y="0" width="789.1" height="195.64"/>
                            </clipPath>
                            <g clip-path="url(#_clip10)">
                                <g transform="matrix(1,0,0,1,0,-3.38)">
                                    <path d="M378.08,70L396.6,141.5L382.6,141.5L370.26,90L347.09,141.5L335.3,141.5L312.23,90.3L299.55,141.5L285.89,141.5L304.21,70L316.29,70L341.24,125.36L366.1,70L378.08,70Z" style="fill:rgb(0,53,69);fill-rule:nonzero;"/>
                                </g>
                                <g transform="matrix(1,0,0,1,0,-3.38)">
                                    <path d="M449.27,97.64L449.27,89.32L462.74,89.32L462.74,141.51L449.27,141.51L449.27,133.09C445.71,139.09 438.38,142.6 429.47,142.6C410.85,142.6 400.47,129.52 400.47,114.37C400.47,99.82 410.37,88.13 427.47,88.13C437.29,88.13 445.41,91.5 449.27,97.64ZM414.81,115.07C414.81,124.67 420.81,132.89 432.53,132.89C443.82,132.89 449.96,124.89 449.96,115.36C449.96,105.83 443.63,97.74 431.96,97.74C420.65,97.74 414.81,105.86 414.81,115.07Z" style="fill:rgb(0,53,69);fill-rule:nonzero;"/>
                                </g>
                                <g transform="matrix(1,0,0,1,0,-3.38)">
                                    <path d="M493.13,141.51L479.66,141.51L479.66,89.32L493.13,89.32L493.13,101C496.69,93 503.92,88.13 511.94,88.13C514.807,88.091 517.658,88.562 520.36,89.52L517.49,99.42C515.163,98.798 512.768,98.463 510.36,98.42C500.65,98.42 493.13,105.75 493.13,116.54L493.13,141.51Z" style="fill:rgb(0,53,69);fill-rule:nonzero;"/>
                                </g>
                                <g transform="matrix(1,0,0,1,0,-3.38)">
                                    <path d="M527.09,75.55C527.089,75.5 527.088,75.45 527.088,75.4C527.088,71.637 530.185,68.54 533.948,68.54C534.072,68.54 534.196,68.543 534.32,68.55C534.397,68.547 534.474,68.546 534.551,68.546C538.446,68.546 541.651,71.751 541.651,75.646C541.651,75.691 541.651,75.735 541.65,75.78C541.65,79.25 539.27,82.71 534.32,82.71C534.219,82.714 534.117,82.717 534.016,82.717C530.214,82.717 527.086,79.588 527.086,75.787C527.086,75.708 527.087,75.629 527.09,75.55ZM527.68,89.32L541.15,89.32L541.15,127.45C541.15,129.82 541.65,131.51 543.63,131.51C544.494,131.487 545.354,131.387 546.2,131.21L548.28,141.01C545.44,142.107 542.414,142.647 539.37,142.6C533.72,142.6 527.68,140.91 527.68,128.14L527.68,89.32Z" style="fill:rgb(0,53,69);fill-rule:nonzero;"/>
                                </g>
                                <g transform="matrix(1,0,0,1,0,-3.38)">
                                    <path d="M601.36,97.64L601.36,89.32L614.82,89.32L614.82,141.51L601.36,141.51L601.36,133.09C597.79,139.09 590.46,142.6 581.55,142.6C562.93,142.6 552.55,129.52 552.55,114.37C552.55,99.82 562.46,88.13 579.55,88.13C589.37,88.13 597.49,91.5 601.36,97.64ZM566.89,115.07C566.89,124.67 572.89,132.89 584.62,132.89C595.91,132.89 602.05,124.89 602.05,115.36C602.05,105.83 595.71,97.74 584.05,97.74C572.74,97.74 566.89,105.86 566.89,115.07Z" style="fill:rgb(0,53,69);fill-rule:nonzero;"/>
                                </g>
                                <g transform="matrix(1,0,0,1,0,-3.38)">
                                    <path d="M635.51,70L667.8,70C694.93,70 708.5,84.95 708.3,105.75C708.5,127.34 693.54,141.5 670.17,141.5L635.51,141.5L635.51,70ZM644.42,76.34L644.42,135.26L669,135.26C690.59,135.26 698.81,120.7 698.81,105.55C698.81,88.42 688.51,76.34 669,76.34L644.42,76.34Z" style="fill:rgb(0,53,69);fill-rule:nonzero;"/>
                                </g>
                                <g transform="matrix(1,0,0,1,0,-3.38)">
                                    <path d="M763.35,141.51L722.35,141.51L722.35,70L759.29,70C773.45,70 786.92,72.67 786.72,88.52C786.72,99.71 779.79,102.78 772.46,103.97C782.86,104.86 789.1,111.49 789.1,122.19C789.19,138.24 775.13,141.51 763.35,141.51ZM760.28,101.2C774.44,101.2 777.61,95.76 777.61,88.82C777.61,78.43 771.27,76.05 760.28,76.05L730.87,76.05L730.87,101.2L760.28,101.2ZM760.67,107.2L730.87,107.2L730.87,135.43L762,135.43C770.72,135.43 779.93,132.55 779.93,121.56C779.89,108.93 769.29,107.24 760.67,107.24L760.67,107.2Z" style="fill:rgb(0,53,69);fill-rule:nonzero;"/>
                                </g>
                                <g transform="matrix(1,0,0,1,0,-3.38)">
                                    <path d="M299.2,4.34C298.382,3.661 297.343,3.305 296.28,3.34C293.38,3.34 289.63,5.34 287.62,6.34C287.27,6.53 287,6.67 286.81,6.75C283.436,8.411 279.756,9.357 276,9.53C272.14,9.65 268.81,9.88 264.5,10.33C238.82,13 227.43,32.6 216.42,51.6C210.42,61.92 204.24,72.6 195.75,80.88C193.994,82.583 192.127,84.166 190.16,85.62C181.38,92.16 170.35,96.79 161.73,100.09C153.47,103.24 144.45,106.09 135.73,108.83C127.73,111.34 120.22,113.72 113.29,116.29C110.16,117.45 107.5,118.29 105.16,119.12C98.85,121.22 94.29,122.74 87.65,127.29C85.06,129.06 82.46,130.98 80.65,132.43C75.384,136.644 70.724,141.564 66.8,147.05C63.435,152.111 59.547,156.803 55.2,161.05C53.8,162.42 51.31,163.05 47.58,163.05C43.21,163.05 37.91,162.15 32.3,161.2C26.53,160.2 20.55,159.2 15.43,159.2C11.26,159.2 8.08,159.87 5.69,161.26C5.69,161.26 1.69,163.6 -0,166.62L1.66,167.37C4.23,168.755 6.616,170.458 8.76,172.44C10.982,174.498 13.459,176.263 16.13,177.69C16.983,178.03 17.757,178.544 18.4,179.2C17.7,180.2 16.67,181.55 15.6,182.96C9.68,190.7 6.23,195.59 8.21,198.25C9.132,198.74 10.166,198.985 11.21,198.96C24.11,198.96 31.03,195.6 39.8,191.36C42.34,190.13 44.96,188.86 47.96,187.56C53.08,185.34 58.6,181.8 64.44,178.04C72.18,173.04 80.18,167.93 87.93,165.44C94.315,163.494 100.966,162.56 107.64,162.67C115.87,162.67 124.47,163.77 132.79,164.84C139,165.63 145.42,166.45 151.72,166.84C154.17,166.99 156.44,167.06 158.64,167.06C161.59,167.072 164.538,166.915 167.47,166.59L168.17,166.35C172.59,163.63 174.66,157.8 176.67,152.17C177.96,148.54 179.04,145.28 180.72,143.17C180.826,143.068 180.939,142.974 181.06,142.89C181.226,142.797 181.437,142.835 181.56,142.98C181.683,143.125 181.56,143.03 181.56,143.13C180.5,165.19 171.66,179.18 162.68,191.62L156.68,198.05C156.68,198.05 165.07,198.05 169.84,196.21C187.26,191 200.42,179.52 209.99,161.21C212.349,156.511 214.459,151.691 216.31,146.77C216.47,146.36 217.99,145.6 217.84,147.72C217.84,148.35 217.75,149.04 217.7,149.72C217.7,150.15 217.64,150.59 217.62,151.03C217.37,154.03 216.62,160.6 216.62,160.6L222,157.72C235,149.5 245,132.98 252.56,107.25C255.72,96.53 258.03,85.88 260.07,76.49C262.51,65.26 264.62,55.56 267.07,51.81C270.85,45.92 276.62,41.94 282.2,38.08L284.48,36.5C291.48,31.57 298.48,25.88 300.02,15.28L300.02,15.04C301.22,7.29 300.27,5.27 299.2,4.34Z" style="fill:rgb(0,53,69);fill-rule:nonzero;"/>
                                </g>
                            </g>
                        </g>
                    </g>
                    <g transform="matrix(0.906354,0,0,0.71123,64.0703,-72.5201)">
                        <text x="317.262px" y="594.054px" style="font-family:'ArialMT', 'Arial', sans-serif;font-size:66.945px;">5 GB</text>
                    </g>
                </g>
            </g>
            <g transform="matrix(0.604517,0,0,0.782039,244.126,-170.575)">
                <path d="M766.37,546.466C766.37,524.058 746.647,505.866 722.354,505.866L418.101,505.866C393.808,505.866 374.085,524.058 374.085,546.466L374.085,627.668C374.085,650.076 393.808,668.269 418.101,668.269L722.354,668.269C746.647,668.269 766.37,650.076 766.37,627.668L766.37,546.466Z" style="fill:rgb(210,210,210);"/>
                <clipPath id="_clip11">
                    <path d="M766.37,546.466C766.37,524.058 746.647,505.866 722.354,505.866L418.101,505.866C393.808,505.866 374.085,524.058 374.085,546.466L374.085,627.668C374.085,650.076 393.808,668.269 418.101,668.269L722.354,668.269C746.647,668.269 766.37,650.076 766.37,627.668L766.37,546.466Z"/>
                </clipPath>
                <g clip-path="url(#_clip11)">
                    <g id="Redis_Logo" transform="matrix(0.660828,0,0,0.607242,570.228,587.067)">
                        <g transform="matrix(1,0,0,1,-233.68,-77.9)">
                            <g transform="matrix(1,0,0,1,-166.327,-222.114)">
                                <path d="M421.643,272.272C421.643,275.891 418.67,279.121 414.793,279.121C411.82,279.121 409.235,279.897 407.038,281.577C404.583,283.129 402.644,285.325 401.094,287.78C397.992,291.916 396.443,296.826 395.796,298.634L395.796,323.188C395.796,326.937 392.566,330.039 388.689,330.039C384.941,330.039 381.84,326.937 381.84,323.188L381.84,272.272C381.84,268.524 384.941,265.552 388.689,265.552C392.566,265.552 395.796,268.525 395.796,272.272L395.796,273.177C396.571,272.272 397.605,271.239 398.51,270.592C402.775,267.75 408.331,265.423 414.793,265.552C418.67,265.552 421.643,268.525 421.643,272.272Z" style="fill:rgb(99,100,102);fill-rule:nonzero;"/>
                                <path d="M417.853,297.732C417.983,280.157 431.681,265.425 449.384,265.425C466.184,265.425 479.494,277.96 480.529,295.405L480.529,296.051C480.529,296.31 480.529,296.955 480.4,297.214C480.011,300.316 477.298,302.384 473.679,302.384L432.585,302.384C433.231,305.357 434.652,308.716 436.979,310.913C439.693,314.015 444.862,316.339 449.384,316.727C454.036,317.114 459.593,315.952 462.824,313.497C465.537,310.653 470.836,311.042 472.516,313.108C474.196,314.919 475.488,318.796 472.516,321.508C466.183,327.323 458.559,330.038 449.383,330.038C431.681,329.911 417.983,315.307 417.853,297.732ZM431.939,291.4L468.51,291.4C467.218,286.231 460.627,278.607 449.384,277.702C438.401,278.218 432.973,286.102 431.939,291.4Z" style="fill:rgb(99,100,102);fill-rule:nonzero;"/>
                                <path d="M546.363,323.062C546.363,326.811 543.261,330.042 539.384,330.042C535.895,330.042 533.182,327.587 532.535,324.484C527.625,327.844 521.422,330.042 514.96,330.042C497.515,330.042 483.558,315.309 483.558,297.863C483.558,280.158 497.515,265.426 514.96,265.426C521.293,265.426 527.495,267.493 532.276,270.853L532.276,246.559C532.276,242.811 535.378,239.58 539.383,239.58C543.26,239.58 546.362,242.811 546.362,246.559L546.362,323.062L546.363,323.062ZM514.961,279.512C510.309,279.512 506.044,281.45 502.815,284.81C499.584,288.041 497.645,292.692 497.645,297.862C497.645,302.772 499.583,307.424 502.815,310.655C506.044,314.016 510.309,315.954 514.961,315.954C519.742,315.954 523.878,314.016 527.108,310.655C530.338,307.425 532.277,302.772 532.277,297.862C532.277,292.692 530.339,288.041 527.108,284.81C523.878,281.45 519.742,279.512 514.961,279.512Z" style="fill:rgb(99,100,102);fill-rule:nonzero;"/>
                                <path d="M570.953,249.272C570.953,253.149 567.981,256.379 563.974,256.379C560.097,256.379 556.996,253.149 556.996,249.272L556.996,246.558C556.996,242.681 560.097,239.579 563.974,239.579C567.981,239.579 570.953,242.681 570.953,246.558L570.953,249.272ZM570.953,272.662L570.953,323.061C570.953,326.939 567.981,330.041 563.974,330.041C560.097,330.041 556.996,326.939 556.996,323.061L556.996,272.662C556.996,268.527 560.097,265.554 563.974,265.554C567.982,265.554 570.953,268.527 570.953,272.662Z" style="fill:rgb(99,100,102);fill-rule:nonzero;"/>
                                <path d="M579.834,311.552C582.16,308.452 586.684,308.064 589.526,310.519C592.886,313.363 598.702,316.333 603.741,316.205C607.23,316.205 610.461,315.043 612.529,313.75C614.338,312.199 614.854,310.908 614.854,309.873C614.854,309.227 614.725,308.969 614.467,308.58C614.337,308.193 613.821,307.676 612.786,307.031C610.977,305.738 607.1,304.316 602.448,303.412L602.319,303.412C598.312,302.637 594.435,301.603 591.076,300.051C587.587,298.372 584.485,296.046 582.159,292.557C580.738,290.231 579.963,287.388 579.963,284.416C579.963,278.471 583.323,273.431 587.587,270.2C592.11,267.099 597.538,265.419 603.483,265.419C612.399,265.419 618.731,269.684 622.867,272.526C625.969,274.594 626.873,278.859 624.934,282.088C622.867,285.19 618.602,286.095 615.372,283.898C611.237,281.185 607.618,279.116 603.483,279.116C600.252,279.116 597.409,280.15 595.729,281.442C594.049,282.606 593.662,283.769 593.662,284.415C593.662,284.931 593.662,285.061 593.92,285.448C594.05,285.706 594.437,286.223 595.342,286.74C597.023,287.903 600.382,289.066 604.776,289.842L604.905,289.972L605.035,289.972C609.3,290.746 613.306,291.91 617.053,293.719C620.542,295.27 624.032,297.725 626.229,301.343C627.78,303.927 628.684,306.9 628.684,309.872C628.684,316.204 625.195,321.503 620.542,324.862C615.89,328.093 610.074,330.033 603.742,330.033C593.663,329.904 585.909,325.251 580.74,321.116C577.896,318.79 577.509,314.395 579.834,311.552Z" style="fill:rgb(99,100,102);fill-rule:nonzero;"/>
                                <path d="M334.772,339.543C325.694,344.275 278.666,363.611 268.654,368.83C258.642,374.051 253.08,374 245.17,370.219C237.261,366.438 187.215,346.223 178.2,341.914C173.694,339.76 171.325,337.943 171.325,336.226L171.325,319.03C171.325,319.03 236.478,304.846 246.998,301.073C257.516,297.299 261.165,297.163 270.116,300.442C279.068,303.721 332.59,313.378 341.437,316.618C341.437,316.618 341.433,331.976 341.433,333.57C341.434,335.27 339.393,337.135 334.772,339.543Z" style="fill:rgb(164,30,17);fill-rule:nonzero;"/>
                                <path d="M334.772,322.342C325.694,327.073 278.666,346.411 268.654,351.63C258.642,356.851 253.08,356.8 245.17,353.019C237.26,349.24 187.215,329.021 178.2,324.713C169.185,320.404 168.996,317.438 177.852,313.971C186.707,310.502 236.478,290.975 246.999,287.201C257.517,283.429 261.166,283.291 270.117,286.571C279.069,289.85 325.816,308.457 334.662,311.697C343.51,314.94 343.85,317.61 334.772,322.342Z" style="fill:rgb(216,44,32);fill-rule:nonzero;"/>
                                <path d="M334.772,311.502C325.694,316.234 278.666,335.571 268.654,340.792C258.642,346.011 253.08,345.96 245.17,342.179C237.26,338.4 187.215,318.182 178.2,313.873C173.694,311.719 171.325,309.904 171.325,308.187L171.325,290.99C171.325,290.99 236.478,276.807 246.998,273.033C257.516,269.26 261.165,269.123 270.116,272.402C279.068,275.681 332.59,285.336 341.437,288.577C341.437,288.577 341.433,303.934 341.433,305.53C341.434,307.229 339.393,309.094 334.772,311.502Z" style="fill:rgb(164,30,17);fill-rule:nonzero;"/>
                                <path d="M334.772,294.302C325.694,299.034 278.666,318.37 268.654,323.591C258.642,328.811 253.08,328.76 245.17,324.978C237.26,321.199 187.215,300.981 178.2,296.673C169.185,292.365 168.996,289.399 177.852,285.93C186.707,282.463 236.478,262.935 246.999,259.162C257.517,255.389 261.166,255.252 270.117,258.531C279.069,261.81 325.816,280.416 334.662,283.657C343.51,286.899 343.85,289.57 334.772,294.302Z" style="fill:rgb(216,44,32);fill-rule:nonzero;"/>
                                <path d="M334.772,282.422C325.694,287.154 278.666,306.491 268.654,311.712C258.642,316.931 253.08,316.88 245.17,313.099C237.26,309.32 187.215,289.102 178.2,284.794C173.694,282.64 171.325,280.824 171.325,279.108L171.325,261.911C171.325,261.911 236.478,247.728 246.998,243.955C257.516,240.181 261.165,240.045 270.116,243.324C279.068,246.603 332.59,256.258 341.437,259.499C341.437,259.499 341.433,274.856 341.433,276.451C341.434,278.149 339.393,280.014 334.772,282.422Z" style="fill:rgb(164,30,17);fill-rule:nonzero;"/>
                                <path d="M334.772,265.222C325.694,269.954 278.666,289.291 268.654,294.511C258.642,299.73 253.08,299.679 245.17,295.899C237.261,292.119 187.215,271.902 178.2,267.594C169.185,263.286 168.996,260.319 177.852,256.851C186.707,253.383 236.478,233.857 246.999,230.083C257.517,226.309 261.166,226.173 270.117,229.453C279.069,232.732 325.816,251.338 334.662,254.579C343.51,257.819 343.85,260.491 334.772,265.222Z" style="fill:rgb(216,44,32);fill-rule:nonzero;"/>
                                <path d="M278.672,248.662L263.932,250.192L260.632,258.132L255.302,249.272L238.281,247.742L250.982,243.162L247.172,236.132L259.062,240.782L270.272,237.112L267.242,244.382L278.672,248.662Z" style="fill:white;fill-rule:nonzero;"/>
                                <path d="M259.752,287.182L232.241,275.772L271.662,269.722L259.752,287.182Z" style="fill:white;fill-rule:nonzero;"/>
                                <ellipse cx="221.611" cy="261.242" rx="21.069" ry="8.167" style="fill:white;"/>
                                <path d="M296.092,250.832L319.422,260.052L296.112,269.262L296.092,250.832Z" style="fill:rgb(122,12,0);fill-rule:nonzero;"/>
                                <path d="M270.282,261.042L296.092,250.832L296.112,269.262L293.582,270.252L270.282,261.042Z" style="fill:rgb(173,33,21);fill-rule:nonzero;"/>
                            </g>
                        </g>
                    </g>
                </g>
            </g>
        </g>
        <path d="M752.836,248.662C752.836,193.828 715.53,149.31 669.578,149.31L195.648,149.31C149.697,149.31 112.39,193.828 112.39,248.662L112.39,909.833C112.39,964.667 149.697,1009.19 195.648,1009.19L669.578,1009.19C715.53,1009.19 752.836,964.667 752.836,909.833L752.836,248.662Z" style="fill:none;stroke:black;stroke-width:0.13px;stroke-linecap:round;stroke-linejoin:miter;"/>
    </g>
    <g transform="matrix(1,0,0,1,840.383,0)">
        <g transform="matrix(1,-0,-0,1,-840.383,0)">
            <path d="M838.915,295.514L824.608,284.764L838.934,274.039L838.915,295.514Z"/>
            <path d="M1377.33,427.024L1377.33,285.246C1377.33,285.246 915.172,284.843 836.061,284.774" style="fill:none;stroke:black;stroke-width:4.77px;stroke-linejoin:miter;stroke-dasharray:4.77,4.77;"/>
        </g>
    </g>
    <g transform="matrix(1,0,0,1,335.492,-27.7737)">
        <g transform="matrix(1,-0,-0,1,-335.492,27.7737)">
            <path d="M362.534,373.854L373.271,359.537L384.009,373.854L362.534,373.854Z"/>
            <path d="M1377.33,395.989L373.271,397.05L373.271,370.991" style="fill:none;stroke:black;stroke-width:4.77px;stroke-linejoin:miter;stroke-dasharray:4.77,4.77;"/>
        </g>
    </g>
    <path d="M551.253,666.347L536.945,677.098L551.272,687.823L551.253,666.347Z"/>
    <path d="M1363,665.62L1377.33,676.345L1363.02,687.095L1363,665.62Z"/>
    <path d="M548.399,677.088L1365.88,676.355" style="fill:none;stroke:black;stroke-width:4.77px;stroke-linejoin:miter;stroke-dasharray:4.77,4.77;"/>
</svg>
